<?xml version="1.0" encoding="utf-8"?>
<svg version="1.1" id="Слой_1" xmlns="http://www.w3.org/2000/svg" xmlns:xlink="http://www.w3.org/1999/xlink" x="0px" y="0px"
	 viewBox="0 0 120 120" style="enable-background:new 0 0 120 120;" xml:space="preserve">
<style type="text/css">.st0{fill:#4C4C4C;}.st1{fill:#FFFFFF;}</style>
<path class="st0" d="M105.4,88.2c-1.2-3.1-2.8-5.9-4.7-8.4c-3.5,5.1-8.3,9.4-14.4,12.2c-17.7,8.2-38.7,0.5-46.8-17.2
	S39,36.1,56.7,27.9c16.1-7.4,34.8-1.7,44.3,12.6c1.8-3,3.1-6.2,3.9-9.4c-2.3-2.7-4.9-5-7.7-7.1l0.2-20.3L88,0.3L75.2,16
	c-3.6-0.3-7.3-0.2-11,0.4L50,1.9l-9,4.2L43,26.2c-2.8,2.4-5.3,5.1-7.4,8.1l-20.3-0.2l-3.4,9.4l15.7,12.8c-0.3,3.6-0.2,7.3,0.4,11
	L13.4,81.4l4.2,9l20.2-2.1c2.4,2.8,5.1,5.3,8.1,7.4l-0.2,20.3l9.4,3.4l12.8-15.7c3.6,0.3,7.3,0.2,11-0.4L93,118l9-4.2l-2.1-20.2
	C101.9,92,103.8,90.1,105.4,88.2z"/>
<ellipse transform="matrix(0.9871 -0.1602 0.1602 0.9871 -8.703 12.2159)" class="st1" cx="71.4" cy="60.1" rx="30.6" ry="30.6"/>
<path d="M97.3,76.4c-5-7.1-12.9-11.9-21.9-12.8c-0.2,0-0.4,0-0.5,0c-6.2,0-11.2-5-11.2-11.2s5-11.2,11.2-11.2
	c6.2,0,10.2,5,10.2,11.2c0,0.4,0,0.5,0,0.8c0,0-1.7,1.4-3.5,2c-1.8,0.6-3.2,0.7-3.2,0.7c0.8-1,1.2-2,1.2-3.8c0-2.7-2-4.7-4.7-4.7
	c-2.7,0-4.9,2.2-4.9,4.9c0,2.7,2,4.7,4.7,5.1c0.5,0.1,3.1,0.2,5.4-0.4c3.6-1,9-4.5,9-4.5c3.3-2.3,6.1-5.3,8.3-8.7
	c0.2,0.3,0.4,0.6,0.5,0.9c-5.3-9.1-15.2-15.2-26.4-15.2c-16.9,0-30.6,13.7-30.6,30.6s13.7,30.6,30.6,30.6c11.3,0,21.1-6.1,26.4-15.2
	C97.7,75.8,97.5,76.1,97.3,76.4z M69.8,63.3h-6.5c-0.5,1.8-1.1,3.6-1.1,3.6h-3.2c-1.9,2-4.6,3.3-7.6,3.3c-5.7,0-10.4-4.7-10.4-10.4
	s4.7-10.4,10.4-10.4c3.2,0,6,1.4,8,3.7h2.9c0,0,0.7,2.1,1.2,4H64c1.1,2.7,3.2,4.8,5.8,6V63.3z"/>
</svg>